<?xml version="1.0" encoding="UTF-8" standalone="no"?>
<svg xmlns="http://www.w3.org/2000/svg" width="45" height="45" viewBox="0 0 45 45">
  <path
    d="M22.5,9 C20.29,9 18.5,10.79 18.5,13 C18.5,13.89 18.79,14.71 19.28,15.38 C17.33,16.5 16,18.59 16,21 C16,23.03 16.94,24.84 18.41,26.03 C15.41,27.09 11,31.58 11,39.5 L34,39.5 C34,31.58 29.59,27.09 26.59,26.03 C28.06,24.84 29,23.03 29,21 C29,18.59 27.67,16.5 25.72,15.38 C26.21,14.71 26.5,13.89 26.5,13 C26.5,10.79 24.71,9 22.5,9 z"
    style="opacity:1; fill:#000000; fill-opacity:1; fill-rule:nonzero; stroke:#000000; stroke-width:1.5; stroke-linecap:round; stroke-linejoin:miter; stroke-miterlimit:4; stroke-dasharray:none; stroke-opacity:1;" />
</svg>
